<svg xmlns="http://www.w3.org/2000/svg" width="720" height="1600" viewBox="0 0 720 1600">
<defs>
  <linearGradient id="space" x1="0" y1="0" x2="0" y2="1"><stop offset="0" stop-color="#02050b"/><stop offset="0.34" stop-color="#060912"/><stop offset="0.66" stop-color="#120d11"/><stop offset="1" stop-color="#21120e"/></linearGradient>
  <radialGradient id="sunCore"><stop offset="0" stop-color="#fff7bf"/><stop offset="0.22" stop-color="#ffe27d"/><stop offset="0.52" stop-color="#ffae3f"/><stop offset="0.78" stop-color="#f36620"/><stop offset="1" stop-color="#ae2a14"/></radialGradient>
  <radialGradient id="sunHalo"><stop offset="0" stop-color="#ffb74a" stop-opacity="0.32"/><stop offset="0.48" stop-color="#ff6c21" stop-opacity="0.12"/><stop offset="1" stop-color="#ff4815" stop-opacity="0"/></radialGradient>
  <linearGradient id="horizon" x1="0" y1="0" x2="0" y2="1"><stop offset="0" stop-color="#8f5139"/><stop offset="0.2" stop-color="#4f3027"/><stop offset="0.62" stop-color="#24191a"/><stop offset="1" stop-color="#0a090b"/></linearGradient>
  <linearGradient id="nearRock" x1="0" y1="0" x2="0" y2="1"><stop offset="0" stop-color="#513229"/><stop offset="0.28" stop-color="#2d1e1d"/><stop offset="1" stop-color="#08080a"/></linearGradient>
  <linearGradient id="stationMetal" x1="0" y1="0" x2="1" y2="1"><stop offset="0" stop-color="#3f4650"/><stop offset="0.45" stop-color="#171d24"/><stop offset="1" stop-color="#080b0f"/></linearGradient>
  <linearGradient id="lava" x1="0" y1="0" x2="1" y2="0"><stop offset="0" stop-color="#ff6b21" stop-opacity="0"/><stop offset="0.5" stop-color="#ffb24c" stop-opacity="0.82"/><stop offset="1" stop-color="#ff5b18" stop-opacity="0"/></linearGradient>
</defs>
<rect width="720" height="1600" fill="url(#space)"/>
<ellipse cx="555" cy="245" rx="330" ry="320" fill="url(#sunHalo)"/><ellipse cx="430" cy="710" rx="390" ry="520" fill="#7b2c1a" opacity="0.055"/>
<g fill="#d8eaff"><circle cx="44" cy="94" r="1.3" opacity="0.42"/><circle cx="102" cy="160" r="1.1" opacity="0.3"/><circle cx="176" cy="72" r="1.5" opacity="0.44"/><circle cx="251" cy="198" r="1.1" opacity="0.4"/><circle cx="321" cy="117" r="1.3" opacity="0.34"/><circle cx="385" cy="253" r="1.2" opacity="0.33"/><circle cx="450" cy="116" r="1" opacity="0.32"/><circle cx="608" cy="82" r="1.4" opacity="0.45"/><circle cx="674" cy="244" r="1.2" opacity="0.35"/><circle cx="71" cy="353" r="1.2" opacity="0.35"/><circle cx="143" cy="440" r="1.1" opacity="0.32"/><circle cx="238" cy="331" r="1.3" opacity="0.38"/><circle cx="305" cy="493" r="1" opacity="0.25"/><circle cx="406" cy="416" r="1.3" opacity="0.4"/><circle cx="536" cy="496" r="1.1" opacity="0.3"/><circle cx="652" cy="392" r="1.4" opacity="0.38"/><circle cx="59" cy="585" r="1" opacity="0.24"/><circle cx="212" cy="626" r="1.2" opacity="0.28"/><circle cx="354" cy="587" r="1.2" opacity="0.3"/><circle cx="482" cy="652" r="1" opacity="0.28"/><circle cx="628" cy="574" r="1.2" opacity="0.32"/></g>
<g fill="#ff9f52" opacity="0.26"><circle cx="152" cy="274" r="1.5"/><circle cx="280" cy="410" r="1.1"/><circle cx="594" cy="335" r="1.3"/><circle cx="488" cy="538" r="1.5"/><circle cx="202" cy="552" r="1.1"/></g>
<circle cx="585" cy="205" r="258" fill="#ff6420" opacity="0.045"/><circle cx="585" cy="205" r="226" fill="#ff7325" opacity="0.07"/><circle cx="585" cy="205" r="193" fill="#ff8b2f" opacity="0.12"/><circle cx="585" cy="205" r="165" fill="url(#sunCore)"/><circle cx="558" cy="171" r="52" fill="#ffeaa2" opacity="0.18"/><circle cx="614" cy="248" r="39" fill="#aa2f17" opacity="0.13"/><circle cx="533" cy="262" r="31" fill="#fff0a5" opacity="0.11"/>
<g fill="none" stroke-linecap="round"><path d="M437 108 C467 64 508 42 554 28" stroke="#ff9a39" stroke-width="9" opacity="0.23"/><path d="M452 300 C493 330 534 347 588 355" stroke="#ff7b29" stroke-width="7" opacity="0.18"/><path d="M649 49 C680 70 703 93 719 125" stroke="#ffab44" stroke-width="8" opacity="0.22"/><path d="M690 286 C705 306 716 327 724 353" stroke="#ff7a28" stroke-width="7" opacity="0.16"/></g>
<g stroke="#ff8a31" opacity="0.16"><path d="M430 185 L368 163" stroke-width="5"/><path d="M438 238 L376 257" stroke-width="4"/><path d="M479 330 L444 389" stroke-width="5"/><path d="M572 370 L568 430" stroke-width="4"/><path d="M671 344 L699 399" stroke-width="5"/></g>
<g opacity="0.92"><path d="M-105 275 A258 258 0 0 1 166 540" fill="none" stroke="#121820" stroke-width="42"/><path d="M-91 285 A241 241 0 0 1 152 523" fill="none" stroke="#46505c" stroke-width="6" opacity="0.68"/><path d="M-76 298 A222 222 0 0 1 136 505" fill="none" stroke="#dd7241" stroke-width="2.5" opacity="0.42"/><path d="M56 225 L89 547" stroke="url(#stationMetal)" stroke-width="26"/><path d="M29 300 L120 315" stroke="#252d36" stroke-width="12"/><path d="M17 378 L145 405" stroke="#252d36" stroke-width="11"/><rect x="18" y="494" width="84" height="142" rx="8" fill="url(#stationMetal)"/><rect x="31" y="512" width="8" height="103" fill="#ff7f32" opacity="0.34"/><rect x="51" y="522" width="5" height="81" fill="#76d8ff" opacity="0.28"/><rect x="70" y="505" width="7" height="117" fill="#ff9a45" opacity="0.3"/><path d="M31 467 L126 427" stroke="#2a323c" stroke-width="9"/><path d="M109 439 L192 411" stroke="#2a323c" stroke-width="7"/><circle cx="103" cy="458" r="12" fill="#ff7028" opacity="0.18"/><circle cx="103" cy="458" r="5" fill="#ffbd63" opacity="0.6"/></g>
<g opacity="0.82"><path d="M658 532 L678 768" stroke="#11171d" stroke-width="20"/><path d="M628 655 L707 655" stroke="#151b21" stroke-width="10"/><rect x="635" y="590" width="54" height="140" rx="5" fill="url(#stationMetal)"/><rect x="646" y="610" width="5" height="91" fill="#ff8b37" opacity="0.32"/><rect x="662" y="600" width="5" height="111" fill="#84dfff" opacity="0.22"/></g>
<g><g transform="translate(96 205)"><path d="M-28 -12 L-14 -31 L12 -35 L31 -17 L27 12 L10 31 L-17 27 L-34 6 Z" fill="#191a1d"/><path d="M-24 -14 L-7 -28 L13 -24" stroke="#ff8f3c" stroke-width="4" opacity="0.22" fill="none"/><circle cx="5" cy="7" r="8" fill="#09090b" opacity="0.66"/></g><g transform="translate(683 422)"><path d="M-31 -16 L-9 -34 L18 -29 L34 -8 L29 20 L5 34 L-22 26 L-38 3 Z" fill="#17181b"/><path d="M-28 -12 L-6 -29 L16 -25" stroke="#ff9b47" stroke-width="4" opacity="0.25" fill="none"/><circle cx="7" cy="8" r="9" fill="#08090a" opacity="0.62"/></g><g transform="translate(64 721)"><path d="M-23 -11 L-8 -28 L17 -24 L29 -5 L22 19 L0 30 L-22 18 L-31 -1 Z" fill="#1b1a1b"/><path d="M-19 -11 L-5 -23 L16 -20" stroke="#d66b38" stroke-width="3" opacity="0.22" fill="none"/></g><g transform="translate(666 806)"><path d="M-25 -13 L-10 -31 L15 -26 L31 -7 L23 19 L1 30 L-24 19 L-32 0 Z" fill="#171719"/><path d="M-20 -12 L-6 -25 L13 -21" stroke="#ef7e3f" stroke-width="3" opacity="0.23" fill="none"/></g><g transform="translate(137 930)"><path d="M-19 -10 L-7 -23 L13 -21 L24 -5 L18 16 L1 24 L-18 16 L-26 0 Z" fill="#161719"/></g><g transform="translate(601 1004)"><path d="M-20 -10 L-8 -26 L12 -23 L26 -7 L20 16 L1 26 L-20 17 L-27 0 Z" fill="#151619"/></g></g>
<path d="M-20 742 C160 687 314 694 454 659 C565 632 654 603 760 553 L760 1005 L-20 1005 Z" fill="#181517"/><path d="M-20 780 C150 731 313 736 456 699 C573 670 665 640 760 596" fill="none" stroke="#ffb462" stroke-width="5" opacity="0.23"/><path d="M-20 789 C150 742 314 746 458 709 C571 681 666 652 760 609" fill="none" stroke="#f06e2d" stroke-width="14" opacity="0.06"/>
<g fill="#252022" stroke="#75412f" stroke-opacity="0.35"><ellipse cx="95" cy="805" rx="49" ry="17"/><ellipse cx="251" cy="770" rx="32" ry="12"/><ellipse cx="410" cy="756" rx="42" ry="14"/><ellipse cx="548" cy="710" rx="35" ry="12"/><ellipse cx="654" cy="674" rx="46" ry="16"/></g><g fill="#09090b" opacity="0.68"><ellipse cx="98" cy="805" rx="34" ry="11"/><ellipse cx="251" cy="770" rx="23" ry="8"/><ellipse cx="410" cy="756" rx="29" ry="9"/><ellipse cx="548" cy="710" rx="24" ry="8"/><ellipse cx="654" cy="674" rx="32" ry="10"/></g>
<path d="M-30 922 L72 858 L154 886 L241 817 L326 852 L410 792 L499 825 L588 760 L668 792 L752 725 L752 1600 L-30 1600 Z" fill="url(#horizon)"/><path d="M-30 1098 L73 1017 L164 1055 L268 965 L362 1020 L466 927 L567 986 L670 894 L752 930 L752 1600 L-30 1600 Z" fill="url(#nearRock)"/>
<g fill="none" stroke-linecap="round"><path d="M77 900 L157 917 L236 849" stroke="#bd6a43" stroke-width="5" opacity="0.28"/><path d="M359 863 L420 817 L493 848" stroke="#e07b45" stroke-width="4" opacity="0.25"/><path d="M520 837 L589 790 L655 816" stroke="#d56e3b" stroke-width="4" opacity="0.24"/><path d="M86 1049 L161 1075 L262 990" stroke="#a95d3d" stroke-width="5" opacity="0.3"/><path d="M383 1030 L467 958 L561 1008" stroke="#c66b40" stroke-width="5" opacity="0.26"/></g>
<g fill="none" stroke-linecap="round"><path d="M106 1160 C141 1131 161 1126 193 1102" stroke="url(#lava)" stroke-width="5" opacity="0.38"/><path d="M472 1182 C515 1143 552 1124 601 1089" stroke="url(#lava)" stroke-width="6" opacity="0.42"/><path d="M258 1338 C304 1298 340 1283 375 1256" stroke="url(#lava)" stroke-width="4" opacity="0.31"/></g>
<g><ellipse cx="121" cy="1115" rx="72" ry="29" fill="#100e10"/><ellipse cx="121" cy="1109" rx="67" ry="24" fill="#211717"/><ellipse cx="121" cy="1110" rx="51" ry="18" fill="#08080a"/><ellipse cx="332" cy="1212" rx="88" ry="34" fill="#0f0d0f"/><ellipse cx="332" cy="1206" rx="82" ry="29" fill="#211617"/><ellipse cx="332" cy="1208" rx="61" ry="21" fill="#070709"/><ellipse cx="579" cy="1129" rx="61" ry="25" fill="#100e10"/><ellipse cx="579" cy="1124" rx="55" ry="21" fill="#241819"/><ellipse cx="579" cy="1125" rx="42" ry="15" fill="#08080a"/><ellipse cx="508" cy="1404" rx="76" ry="28" fill="#0e0d0f"/><ellipse cx="508" cy="1399" rx="70" ry="24" fill="#201617"/><ellipse cx="508" cy="1401" rx="53" ry="17" fill="#070709"/></g>
<path d="M0 1040 L51 990 L93 1025 L77 1112 L111 1194 L83 1298 L101 1412 L58 1530 L0 1600 Z" fill="#110d0e"/><path d="M720 968 L671 928 L637 982 L649 1073 L615 1160 L646 1267 L625 1375 L669 1515 L720 1600 Z" fill="#110d0e"/><path d="M0 1120 L40 1090 L73 1121" stroke="#b8663e" stroke-width="4" opacity="0.18" fill="none"/><path d="M720 1050 L679 1020 L650 1050" stroke="#c16b42" stroke-width="4" opacity="0.18" fill="none"/>
<g fill="#11161c" opacity="0.78"><rect x="204" y="724" width="10" height="72"/><path d="M198 738 L209 697 L220 738 Z"/><rect x="462" y="685" width="9" height="64"/><path d="M457 700 L466 666 L475 700 Z"/><rect x="548" y="649" width="8" height="59"/><path d="M543 665 L552 632 L560 665 Z"/></g><g fill="#ff8b3d" opacity="0.5"><circle cx="209" cy="738" r="2.5"/><circle cx="466" cy="700" r="2.3"/><circle cx="552" cy="665" r="2.1"/></g>
<path d="M235 0 L485 0 L520 1600 L200 1600 Z" fill="#02040a" opacity="0.085"/>
</svg>