<svg xmlns="http://www.w3.org/2000/svg" viewBox="0 0 388 64" fill="none"><title>SOLAR 8</title><g stroke="#f2efe8" stroke-width="5.5" stroke-linecap="square" stroke-linejoin="bevel"><path d="M43 10H13L7 16V26L13 32H36L43 38V48L37 54H7"/><path d="M122 10V54H157"/><path d="M174 54L195 10L216 54M183 37H207"/><path d="M236 54V10H267L274 17V27L267 34H236M254 34L276 54"/></g><circle cx="82" cy="32" r="22" stroke="#f2efe8" stroke-width="5.5"/><path d="M68 12A24 24 0 0 1 104 39" stroke="#eab47b" stroke-width="6"/><path d="M55 45L108 17" stroke="#eab47b" stroke-width="1.5"/><path d="M332 32C309 19 315 7 335 7S362 20 339 32C363 45 359 57 335 57S308 45 332 32Z" stroke="#eab47b" stroke-width="5.5"/><path d="M361 17L354 28L366 24L361 17Z" fill="#f2efe8"/><path d="M350 31L368 11" stroke="#eab47b" stroke-width="1.5"/></svg>
